<?xml version="1.0" encoding="iso-8859-1"?>
<!-- Generator: Adobe Illustrator 16.0.0, SVG Export Plug-In . SVG Version: 6.00 Build 0)  -->
<!DOCTYPE svg PUBLIC "-//W3C//DTD SVG 1.1//EN" "http://www.w3.org/Graphics/SVG/1.1/DTD/svg11.dtd">
<svg xmlns="http://www.w3.org/2000/svg" xmlns:xlink="http://www.w3.org/1999/xlink" version="1.1" id="Capa_1" x="0px" y="0px" viewBox="0 0 471.671 471.671" style="enable-background:new 0 0 471.671 471.671;" xml:space="preserve">
<g>
	<path d="M444.582,34.91l-53.535,2.737c-8.059,0.417-14.259,7.285-13.846,15.348l11.722,228.728   c0.413,8.067,7.281,14.271,15.349,13.854l53.527-2.745c8.062-0.412,14.267-7.281,13.854-15.349L459.93,48.756   C459.521,40.695,452.653,34.491,444.582,34.91z" fill="#FFFFFF"/>
	<path d="M148.136,432.908l26.235-26.967l8.84,8.604c5.787,5.626,15.042,5.502,20.672-0.284l37.373-38.416   c5.631-5.79,5.503-15.044-0.284-20.67L76.824,195.468c-5.789-5.632-15.042-5.506-20.672,0.278l-37.373,38.426   c-5.631,5.786-5.504,15.039,0.282,20.666l10.796,10.503l-26.23,26.971c-4.705,4.833-4.849,12.307-0.331,16.707l128.151,124.687   C135.959,438.098,143.434,437.745,148.136,432.908z M89.283,376.912l17.897-17.909l0.379,0.385l6.538,6.536l9.441-9.445   l13.686-13.682l2.322-2.324l6.59,6.584l-2.24,2.24l-13.683,13.686l-9.538,9.521l6.915,6.913l-17.897,17.909l-20.035-20.041   L89.283,376.912z M58.659,259.591l15.252,15.248l-3.228,3.229l-13.671,13.686l-8.546,8.54l6.322,6.315l-17.905,17.901   L15.31,302.947l26.233-26.237l13.685-13.685L58.659,259.591z M58.158,309.984l6.915,6.912l8.771-8.768l13.679-13.686l3.001-2.998   l8.438,8.439l-2.884,2.886l-13.679,13.678l-8.89,8.892l6.229,6.225l-17.909,17.893l-21.58-21.572L58.158,309.984z M120.385,326.418   L106.7,340.104l-9.215,9.217l6.915,6.913l-17.903,17.909l-21.206-21.211L83.2,335.03l6.915,6.913l9.115-9.113l13.681-13.677   l2.655-2.653l7.372,7.365L120.385,326.418z M177.389,378.322l-1.806,1.8l-13.685,13.686l-27.868,27.867l-20.412-20.414l-1.16-1.166   l17.897-17.909l1.168,1.174l5.747,5.739l9.76-9.75l13.683-13.686l2.01-2.008L177.389,378.322z" fill="#FFFFFF"/>
	<path d="M105.179,156.253c-4.961,4.198-5.574,11.628-1.373,16.595l141.31,166.903c2.333,2.745,5.65,4.155,9.001,4.155   c2.685,0,5.39-0.905,7.606-2.78c4.961-4.204,5.574-11.63,1.37-16.599L121.775,157.625   C117.576,152.681,110.158,152.037,105.179,156.253z" fill="#FFFFFF"/>
	<path d="M170.385,106.395c-5.624,3.266-7.53,10.474-4.264,16.1l112.067,192.879c2.185,3.763,6.132,5.854,10.188,5.854   c2.02,0,4.056-0.513,5.911-1.595c5.63-3.266,7.529-10.472,4.271-16.098L186.478,110.659   C183.211,105.046,175.996,103.128,170.385,106.395z" fill="#FFFFFF"/>
	<path d="M323.069,301.688c1.302,0,2.645-0.208,3.931-0.673c6.136-2.172,9.338-8.909,7.17-15.036L259.743,76.108   c-2.176-6.125-8.924-9.333-15.031-7.167c-6.129,2.172-9.335,8.908-7.169,15.034l74.434,209.871   C313.683,298.675,318.232,301.688,323.069,301.688z" fill="#FFFFFF"/>
	<path d="M340.148,58.514c-0.89-6.436-6.784-10.9-13.276-10.055c-6.439,0.886-10.94,6.829-10.059,13.275l30.372,220.603   c0.821,5.898,5.867,10.167,11.653,10.167c0.529,0,1.074-0.036,1.627-0.108c6.433-0.89,10.94-6.829,10.059-13.276L340.148,58.514z" fill="#FFFFFF"/>
</g>
<g>
</g>
<g>
</g>
<g>
</g>
<g>
</g>
<g>
</g>
<g>
</g>
<g>
</g>
<g>
</g>
<g>
</g>
<g>
</g>
<g>
</g>
<g>
</g>
<g>
</g>
<g>
</g>
<g>
</g>
</svg>
