<?xml version="1.0" encoding="iso-8859-1"?>
<!-- Generator: Adobe Illustrator 16.0.0, SVG Export Plug-In . SVG Version: 6.00 Build 0)  -->
<!DOCTYPE svg PUBLIC "-//W3C//DTD SVG 1.1//EN" "http://www.w3.org/Graphics/SVG/1.1/DTD/svg11.dtd">
<svg xmlns="http://www.w3.org/2000/svg" xmlns:xlink="http://www.w3.org/1999/xlink" version="1.1" id="Capa_1" x="0px" y="0px" viewBox="0 0 262.468 262.469" style="enable-background:new 0 0 262.468 262.469;" xml:space="preserve">
<g>
	<g>
		<circle cx="104.722" cy="127.92" r="5.965" fill="#FFFFFF"/>
		<path d="M26.512,234.631h209.444c14.644,0,26.512-11.868,26.512-26.512V54.35c0-14.639-11.868-26.512-26.512-26.512H26.512    C11.866,27.838,0,39.711,0,54.35v153.77C0,222.763,11.871,234.631,26.512,234.631z M66.28,218.289H48.167    c-2.934,0-5.302-2.372-5.302-5.303c0-2.925,2.369-5.302,5.302-5.302H66.28c2.931,0,5.303,2.377,5.303,5.302    C71.583,215.917,69.21,218.289,66.28,218.289z M239.933,205.908h-15.026v-56.556h15.026V205.908z M188.318,184.444l1.833-14.892    c0.502-4.044,3.221-7.224,6.783-8.575l12.738-74.86c-8.44-3.536-14.374-11.873-14.374-21.603c0-12.933,10.49-23.421,23.426-23.421    c12.935,0,23.415,10.488,23.415,23.421c0,12.45-9.734,22.53-21.996,23.278l-12.738,74.883c2.703,2.227,4.262,5.737,3.801,9.476    l-1.844,14.893c-0.663,5.37-5.23,9.3-10.507,9.3c-0.435,0-0.869-0.021-1.314-0.072    C191.73,195.552,187.593,190.265,188.318,184.444z M104.722,52.361c41.73,0,75.56,33.829,75.56,75.559    c0,41.731-33.829,75.559-75.56,75.559s-75.559-33.828-75.559-75.559C29.163,86.19,62.992,52.361,104.722,52.361z M14.582,207.685    h18.113c2.931,0,5.302,2.377,5.302,5.302c0,2.931-2.372,5.303-5.302,5.303H14.582c-2.934,0-5.302-2.372-5.302-5.303    C9.279,210.062,11.653,207.685,14.582,207.685z" fill="#FFFFFF"/>
		<path d="M219.066,55.453c5.121,0,9.278,4.156,9.278,9.279s-4.157,9.279-9.278,9.279c-5.127,0-9.279-4.155-9.279-9.279    S213.939,55.453,219.066,55.453z" fill="#FFFFFF"/>
	</g>
</g>
<g>
</g>
<g>
</g>
<g>
</g>
<g>
</g>
<g>
</g>
<g>
</g>
<g>
</g>
<g>
</g>
<g>
</g>
<g>
</g>
<g>
</g>
<g>
</g>
<g>
</g>
<g>
</g>
<g>
</g>
</svg>
