<?xml version="1.0" encoding="iso-8859-1"?>
<!-- Generator: Adobe Illustrator 16.0.0, SVG Export Plug-In . SVG Version: 6.00 Build 0)  -->
<!DOCTYPE svg PUBLIC "-//W3C//DTD SVG 1.1//EN" "http://www.w3.org/Graphics/SVG/1.1/DTD/svg11.dtd">
<svg xmlns="http://www.w3.org/2000/svg" xmlns:xlink="http://www.w3.org/1999/xlink" version="1.1" id="Capa_1" x="0px" y="0px" viewBox="0 0 347.227 347.227" style="enable-background:new 0 0 347.227 347.227;" xml:space="preserve">
<g>
	<g>
		<ellipse cx="170.621" cy="15.802" rx="106.616" ry="15.802" fill="#FFFFFF"/>
		<path d="M143.442,92.491c-8.368-2.09-14.862-6.608-20.308-10.433c-5.222-3.673-9.722-6.839-14.219-6.839    c-4.464,0-11.211,3.078-17.743,6.029c-5.306,2.418-10.722,4.861-16.024,6.313l49.388,190.229L143.442,92.491z" fill="#FFFFFF"/>
		<path d="M220.583,92.421c-5.811-1.766-10.644-5.4-15.052-8.754c-5.394-4.098-10.07-7.654-15.553-7.654l-0.293,0.008    c-5.321,0.118-8.443,2.927-12.768,6.831c-4.231,3.805-9.327,8.313-17.242,10.05l32.173,142.362L220.583,92.421z" fill="#FFFFFF"/>
		<path d="M216.075,342.47c3.687-0.733,6.54-1.362,8.355-1.799v-240.66l-29.748,147.828L216.075,342.47z" fill="#FFFFFF"/>
		<path d="M276.775,88.512c-7.911,0-11.958-4.689-14.912-8.104c-3.073-3.557-4.668-5.041-8.876-4.554    c-2.613,0.298-3.972,1.963-6.668,5.969c-3.114,4.601-7.294,10.794-16.64,11.604v242.131    c16.455-32.846,47.488-201.814,56.021-249.427c-1.832,1.185-3.964,1.956-6.364,2.238    C278.438,88.462,277.581,88.512,276.775,88.512z" fill="#FFFFFF"/>
		<path d="M123.369,341.236c3,0.693,7.377,1.627,12.882,2.602l-9.443-36.363L123.369,341.236z" fill="#FFFFFF"/>
		<path d="M174.686,347.227c6.941-0.08,13.757-0.444,19.04-1.122c6.508-0.825,12.307-1.763,17.168-2.652l-18.755-82.979    L174.686,347.227z" fill="#FFFFFF"/>
		<path d="M154.424,93.567c-0.555,0.032-1.066,0.1-1.647,0.1c-0.407,0-0.817,0-1.242-0.014c-0.998-0.032-1.93-0.166-2.879-0.262    l-20.308,199.043l13.595,52.353c3.056,0.493,6.344,0.958,9.853,1.395c4.891,0.621,11.108,0.962,17.52,1.038l19.981-99.32    L154.424,93.567z" fill="#FFFFFF"/>
		<path d="M66.534,88.873c-3.04,0-5.843-0.583-8.315-1.743c-0.425-0.196-0.793-0.481-1.184-0.705    c9.664,50.531,45.604,234.062,61.231,253.073l4.757-46.659L70.01,88.62C68.834,88.769,67.68,88.873,66.534,88.873z" fill="#FFFFFF"/>
		<path d="M277.865,20.125c0,8.716-47.732,15.795-106.618,15.795S64.632,28.849,64.632,20.125l-1.759,28.956    c0,0-13.157,27.642,0,33.785c13.166,6.141,34.997-12.397,48.485-12.397c13.493,0,22.712,17.775,42.775,18.426    c20.073,0.659,22.133-17.28,37.868-17.632c14.804-0.329,23.251,17.506,38.055,17.498c14.812-0.022,13.257-16.312,24.778-17.625    c14.391-1.647,12.503,14.148,26.32,12.509c13.813-1.649,8.877-25.013,4.276-33.891L277.865,20.125z M70.098,78.52    c-3.457,0-6.251-2.585-6.251-5.759c0-3.176,2.795-5.761,6.251-5.761c3.446,0,6.248,2.585,6.248,5.761    C76.354,75.935,73.553,78.52,70.098,78.52z M153.351,82.633c-3.444,0-6.252-2.577-6.252-5.755c0-3.182,2.808-5.757,6.252-5.757    c3.454,0,6.258,2.575,6.258,5.757C159.608,80.056,156.805,82.633,153.351,82.633z M227.06,79.343    c-3.459,0-6.248-2.575-6.248-5.756c0-3.178,2.789-5.755,6.248-5.755c3.441,0,6.247,2.577,6.247,5.755    C233.314,76.768,230.51,79.343,227.06,79.343z M276.747,73.578c-3.45,0-6.252-2.573-6.252-5.754c0-3.176,2.802-5.753,6.252-5.753    c3.446,0,6.248,2.577,6.248,5.753C282.995,71.005,280.193,73.578,276.747,73.578z" fill="#FFFFFF"/>
	</g>
</g>
<g>
</g>
<g>
</g>
<g>
</g>
<g>
</g>
<g>
</g>
<g>
</g>
<g>
</g>
<g>
</g>
<g>
</g>
<g>
</g>
<g>
</g>
<g>
</g>
<g>
</g>
<g>
</g>
<g>
</g>
</svg>
