<?xml version="1.0" encoding="iso-8859-1"?>
<!-- Generator: Adobe Illustrator 16.0.0, SVG Export Plug-In . SVG Version: 6.00 Build 0)  -->
<!DOCTYPE svg PUBLIC "-//W3C//DTD SVG 1.1//EN" "http://www.w3.org/Graphics/SVG/1.1/DTD/svg11.dtd">
<svg xmlns="http://www.w3.org/2000/svg" xmlns:xlink="http://www.w3.org/1999/xlink" version="1.1" id="Capa_1" x="0px" y="0px" width="54.238px" height="54.238px" viewBox="0 0 241.557 241.557" style="enable-background:new 0 0 241.557 241.557;" xml:space="preserve">
<g>
	<path d="M115.843,238.073c27.137-8.745,44.338-31.395,40.004-51.698c0.072-1.159-0.078-2.36-0.523-3.521L110.675,67.819   c7.073,0.251,19.395,2.292,36.933,10.983c29.163,14.475,41.828,35.843,41.828,35.843c8.275-24.125-19.304-51.693-38.598-60.649   c-13.473-6.255-40.7-19.41-55.923-26.792L86.411,5.283c-1.654-4.256-6.442-6.379-10.706-4.717   c-4.265,1.651-6.375,6.446-4.72,10.703l58.008,149.458c-11.102-3.147-24.384-3.003-37.668,1.285   c-28.451,9.165-46.034,33.637-39.263,54.639C58.837,237.659,87.397,247.255,115.843,238.073z" fill="#FFFFFF"/>
</g>
<g>
</g>
<g>
</g>
<g>
</g>
<g>
</g>
<g>
</g>
<g>
</g>
<g>
</g>
<g>
</g>
<g>
</g>
<g>
</g>
<g>
</g>
<g>
</g>
<g>
</g>
<g>
</g>
<g>
</g>
</svg>
