<?xml version="1.0" encoding="iso-8859-1"?>
<!-- Generator: Adobe Illustrator 16.0.0, SVG Export Plug-In . SVG Version: 6.00 Build 0)  -->
<!DOCTYPE svg PUBLIC "-//W3C//DTD SVG 1.1//EN" "http://www.w3.org/Graphics/SVG/1.1/DTD/svg11.dtd">
<svg xmlns="http://www.w3.org/2000/svg" xmlns:xlink="http://www.w3.org/1999/xlink" version="1.1" id="Capa_1" x="0px" y="0px" viewBox="0 0 440.244 440.244" style="enable-background:new 0 0 440.244 440.244;" xml:space="preserve">
<g>
	<path d="M96.439,11.682L119.067,0c0,0,14.262,8.416,25.425,35.704c0,0-23.305,3.611-35.514,18.344   C108.978,54.048,91.456,31.881,96.439,11.682z" fill="#FFFFFF"/>
	<path d="M344.596,419.044c-2.424-7.574-14.306-10.607-14.306-10.607s-12.455-3.475-10.885-16.791   c1.579-13.309-5.069-19.052-5.069-19.052l-17.894-28.953l-89.806-179.503c0,0-0.549-19.556-9.782-28.733   c-9.239-9.199-18.324-22.133-18.324-22.133S155.42,65.71,155.1,57.795c-0.339-7.913-7.889-15.252-7.889-15.252   c-22.862,4.959-33.641,17.37-33.641,17.37s1.617,10.419,7.881,15.272c6.268,4.827,31.685,51.201,31.685,51.201   s5.29,14.899,7.434,27.748c2.154,12.852,17.781,24.614,17.781,24.614l94.449,177.128l13.249,31.33c0,0,0.85,8.748,12.611,15.156   c11.762,6.428,7.397,18.606,7.397,18.606s-4.408,11.441,0.36,17.797l-0.116,0.061c0.108,0.076,0.261,0.092,0.385,0.152   c2.838,2.961,12.756,0.4,21.789-4.316c9.053-4.637,16.887-11.245,16.13-15.265c0.016-0.152,0.084-0.276,0.092-0.404   L344.596,419.044z M202.718,194.14c2.695-1.391,6.007-0.329,7.388,2.354c1.391,2.695,0.329,6.007-2.354,7.398   c-2.683,1.389-5.999,0.322-7.386-2.364C198.981,198.845,200.029,195.533,202.718,194.14z M217.549,222.849   c2.691-1.391,6.015-0.333,7.386,2.36c1.4,2.681,0.347,6.011-2.353,7.39c-2.687,1.395-5.999,0.328-7.39-2.36   C213.812,227.554,214.862,224.228,217.549,222.849z M232.376,251.55c2.689-1.387,6.003-0.32,7.39,2.353   c1.387,2.709,0.337,6.019-2.36,7.397c-2.692,1.398-6.003,0.333-7.39-2.36C228.642,256.259,229.692,252.937,232.376,251.55z    M247.212,280.267c2.697-1.41,5.999-0.344,7.382,2.349c1.395,2.689,0.336,6.011-2.353,7.39c-2.693,1.387-6.012,0.32-7.386-2.36   C243.461,284.96,244.519,281.65,247.212,280.267z M262.043,308.972c2.693-1.395,6.003-0.353,7.386,2.345   c1.395,2.693,0.329,6.003-2.364,7.39c-2.681,1.383-5.987,0.337-7.39-2.36C258.289,313.666,259.347,310.359,262.043,308.972z    M272.195,346.246c-2.057-3.971-0.497-8.849,3.466-10.9c3.972-2.056,8.853-0.492,10.917,3.479c2.047,3.955,0.488,8.856-3.479,10.9   C279.127,351.796,274.242,350.217,272.195,346.246z M300.919,381.294c-3.979,2.057-8.844,0.493-10.908-3.462   c-2.056-3.979-0.488-8.849,3.482-10.912c3.972-2.061,8.845-0.489,10.893,3.458C306.442,374.366,304.891,379.243,300.919,381.294z" fill="#FFFFFF"/>
</g>
<g>
</g>
<g>
</g>
<g>
</g>
<g>
</g>
<g>
</g>
<g>
</g>
<g>
</g>
<g>
</g>
<g>
</g>
<g>
</g>
<g>
</g>
<g>
</g>
<g>
</g>
<g>
</g>
<g>
</g>
</svg>
