<?xml version="1.0" encoding="iso-8859-1"?>
<!-- Generator: Adobe Illustrator 16.0.0, SVG Export Plug-In . SVG Version: 6.00 Build 0)  -->
<!DOCTYPE svg PUBLIC "-//W3C//DTD SVG 1.1//EN" "http://www.w3.org/Graphics/SVG/1.1/DTD/svg11.dtd">
<svg xmlns="http://www.w3.org/2000/svg" xmlns:xlink="http://www.w3.org/1999/xlink" version="1.1" id="Capa_1" x="0px" y="0px" viewBox="0 0 292.771 292.771" style="enable-background:new 0 0 292.771 292.771;" xml:space="preserve">
<g>
	<g>
		<path d="M133.375,292.771c-30.479-21.924-58.741-28.475-72.048-30.416C69.099,269.552,113.784,291.705,133.375,292.771z" fill="#FFFFFF"/>
		<path d="M231.444,0c0,0-20.925,36.824-45.189,79.976c1.988,1.898,2.237,6.001,0.404,9.932c-2.113,4.523-6.173,7.094-9.078,5.737    c-0.036-0.01-0.062-0.049-0.098-0.064c-1.937,3.456-3.889,6.941-5.841,10.416c0.201,0.057,0.409,0.083,0.595,0.173    c2.905,1.352,3.542,6.113,1.435,10.642c-2.112,4.518-6.172,7.097-9.072,5.737c-0.61-0.28-1.087-0.741-1.491-1.282    c-2.092,3.733-4.152,7.443-6.203,11.118c0.311,0.06,0.621,0.129,0.922,0.261c2.899,1.357,3.531,6.118,1.419,10.644    c-2.103,4.526-6.162,7.094-9.072,5.737c-0.694-0.32-1.24-0.849-1.67-1.512c-2.55,4.609-5.036,9.104-7.423,13.433    c0.51,0.03,1.002,0.113,1.463,0.331c2.899,1.356,3.542,6.11,1.432,10.641c-2.11,4.521-6.172,7.095-9.077,5.743    c-0.834-0.394-1.453-1.093-1.908-1.963c-2.413,4.423-4.673,8.58-6.734,12.412c0.779-0.207,1.564-0.207,2.312,0.042    c3.042,0.994,4.236,5.654,2.672,10.397c-1.559,4.737-5.287,7.777-8.324,6.772c-1.789-0.59-2.918-2.465-3.241-4.856    c-0.774,1.485-1.499,2.879-2.152,4.157c-16.59,32.296-36.135,49.291-49.865,55.604c15.729,3.184,39.468,10.697,65.082,28.365    c-1.341-10.269-3.159-32.182,3.718-43.791c9.178-15.498,60.838-179.078,86.666-207.78C223.123,37.021,221.393,34.725,231.444,0z" fill="#FFFFFF"/>
	</g>
</g>
<g>
</g>
<g>
</g>
<g>
</g>
<g>
</g>
<g>
</g>
<g>
</g>
<g>
</g>
<g>
</g>
<g>
</g>
<g>
</g>
<g>
</g>
<g>
</g>
<g>
</g>
<g>
</g>
<g>
</g>
</svg>
