<?xml version="1.0" encoding="iso-8859-1"?>
<!-- Generator: Adobe Illustrator 16.0.0, SVG Export Plug-In . SVG Version: 6.00 Build 0)  -->
<!DOCTYPE svg PUBLIC "-//W3C//DTD SVG 1.1//EN" "http://www.w3.org/Graphics/SVG/1.1/DTD/svg11.dtd">
<svg xmlns="http://www.w3.org/2000/svg" xmlns:xlink="http://www.w3.org/1999/xlink" version="1.1" id="Capa_1" x="0px" y="0px" viewBox="0 0 275.492 275.493" style="enable-background:new 0 0 275.492 275.493;" xml:space="preserve">
<g>
	<g>
		<path d="M102.444,177.092c1.149,0.606,2.227,1.347,3.138,2.294l6.349,0.316c0.202-1.896,0.38-3.796,0.546-5.707l-4.502-0.223    C106.468,175.384,104.549,176.492,102.444,177.092z" fill="#FFFFFF"/>
		<path d="M219.638,36.52c-5.302-5.965-10.304,4.841-29.81-27.165c-12.92-21.194-45.708-4.634-46.37,32.133    c-0.042,2.115-0.177,4.984-0.394,8.445h-10.942c-1.113-2.131-2.667-3.472-4.391-3.472c-3.389,0-6.131,5.111-6.131,11.42    s2.747,11.428,6.131,11.428c1.725,0,3.278-1.344,4.391-3.475h9.776c-0.303,3.733-0.642,7.726-1.002,11.92h-8.769    c-1.113-2.136-2.667-3.477-4.391-3.477c-3.389,0-6.128,5.121-6.128,11.431c0,6.304,2.745,11.42,6.128,11.42    c1.724,0,3.278-1.336,4.391-3.477h7.382c-0.348,3.902-0.713,7.883-1.072,11.93h-7.964c-1.113-2.141-2.662-3.477-4.391-3.477    c-3.389,0-6.124,5.116-6.124,11.42c0,6.31,2.739,11.431,6.124,11.431c1.729,0,3.278-1.341,4.391-3.477h6.532    c-1.033,11.526-2.053,23.042-2.934,33.653c0.642-0.104,1.284-0.197,1.942-0.197c6.754,0,12.259,5.505,12.259,12.257    c0,5.587-3.77,10.258-8.889,11.729c3.887,2.065,6.568,6.095,6.568,10.791c0,6.763-5.496,12.262-12.256,12.262    c-0.805,0-1.584-0.149-2.354-0.315c0,0.228-0.005,0.455-0.01,0.673c0.127,0,0.249-0.036,0.375-0.036    c6.754,0,12.256,5.499,12.256,12.262c0,6.758-5.496,12.257-12.256,12.257c-3.85,0-7.467-1.849-9.755-4.873l-18.199-0.9    c-2.292,2.511-5.509,3.956-8.976,3.956c-6.763,0-12.259-5.505-12.259-12.262c0-6.758,5.497-12.257,12.259-12.257    c3.801,0,7.301,1.75,9.603,4.681l5.303,0.259c-0.111-2.542-0.049-5.457,0.329-8.911c0.031-0.332,0.072-0.652,0.106-0.984    l-3.638-0.17c-2.291,2.977-5.864,4.795-9.714,4.795c-6.763,0-12.259-5.5-12.259-12.257c0-5.582,3.775-10.253,8.891-11.724    c-3.886-2.071-6.568-6.1-6.568-10.797c0-6.757,5.497-12.256,12.259-12.256c3.86,0,7.392,1.781,9.675,4.773l4.228,0.208    c-0.347-11.268-2.473-22.616-8.443-33.64c0,0-4.974-9.937,3.479-17.886c0,0-55.644-4.968-61.112,57.133c0,0,11.428-6.457,19.376,0    l-2.498,75.523c0,0,0.5,36.268,36.275,36.268c35.768,0,51.672-42.228,55.142-81.473c3.475-39.245,9.942-165.444,24.348-166.935    c14.405-1.489,12.914,16.396,28.313,23.845c15.41,7.457,20.702,5.473,20.702,5.473S224.936,42.479,219.638,36.52z" fill="#FFFFFF"/>
	</g>
	<g>
		<path d="M99.407,173.489c2.98,0,5.577-1.595,7.035-3.956l22.473,1.107c1.346,2.755,4.15,4.671,7.417,4.671    c4.57,0,8.285-3.707,8.285-8.285c0-4.572-3.71-8.279-8.285-8.279c-2.98,0-5.58,1.595-7.037,3.956l-22.47-1.104    c-1.347-2.76-4.148-4.67-7.418-4.67c-4.572,0-8.282,3.702-8.282,8.279C91.125,169.787,94.83,173.489,99.407,173.489z" fill="#FFFFFF"/>
		<path d="M134.021,181.266c-2.561,0-4.821,1.181-6.335,3.003l-23.729-1.17c-1.48-2.206-4.01-3.656-6.866-3.656    c-4.577,0-8.282,3.703-8.282,8.28c0,4.583,3.705,8.285,8.282,8.285c3.366,0,6.255-2.024,7.55-4.919l21.554,1.066    c1.098,3.288,4.168,5.67,7.827,5.67c4.564,0,8.282-3.707,8.282-8.285C142.303,184.968,138.585,181.266,134.021,181.266z" fill="#FFFFFF"/>
		<path d="M132.032,206.105c-2.954,0-5.52,1.549-6.983,3.868l-22.584-1.113c-1.362-2.697-4.129-4.566-7.363-4.566    c-4.577,0-8.282,3.702-8.282,8.284c0,4.572,3.705,8.28,8.282,8.28c3.017,0,5.631-1.636,7.084-4.049l22.369,1.103    c1.326,2.807,4.163,4.759,7.478,4.759c4.569,0,8.282-3.708,8.282-8.28C140.314,209.813,136.602,206.105,132.032,206.105z" fill="#FFFFFF"/>
	</g>
</g>
<g>
</g>
<g>
</g>
<g>
</g>
<g>
</g>
<g>
</g>
<g>
</g>
<g>
</g>
<g>
</g>
<g>
</g>
<g>
</g>
<g>
</g>
<g>
</g>
<g>
</g>
<g>
</g>
<g>
</g>
</svg>
