<?xml version="1.0" encoding="iso-8859-1"?>
<!-- Generator: Adobe Illustrator 16.0.0, SVG Export Plug-In . SVG Version: 6.00 Build 0)  -->
<!DOCTYPE svg PUBLIC "-//W3C//DTD SVG 1.1//EN" "http://www.w3.org/Graphics/SVG/1.1/DTD/svg11.dtd">
<svg xmlns="http://www.w3.org/2000/svg" xmlns:xlink="http://www.w3.org/1999/xlink" version="1.1" id="Capa_1" x="0px" y="0px" viewBox="0 0 439.376 439.376" style="enable-background:new 0 0 439.376 439.376;" xml:space="preserve">
<g>
	<path d="M219.688,119.731c121.327,0,219.688,21.424,219.688,47.858c0,26.429-98.361,47.853-219.688,47.853   C98.358,215.443,0,194.019,0,167.59C0,141.155,98.358,119.731,219.688,119.731z" fill="#FFFFFF"/>
	<g>
		<path d="M5.072,250.752c0,0,0,6.705,0,14.98c0,8.263,5.999,18.674,13.864,22.309c26.667,12.303,92.916,35.37,208.725,31.078    c112.372-4.148,172.479-22.51,197.47-32.545c8.051-3.226,14.246-13.637,14.246-22.309V243.76    c-26.172,14.242-86.295,36.98-203.741,36.98C118.802,280.74,41.571,262.174,5.072,250.752z M52.688,288.683    c-22.233-4.845-24.165-21.279-24.165-21.279l58.007,13.06C86.519,280.463,74.919,293.512,52.688,288.683z M231.768,303.679    c-21.265-0.489-32.14-13.938-32.14-13.938h64.287C263.923,289.74,253.035,304.155,231.768,303.679z M395.556,284.804    c-22.25,4.829-33.839-8.22-33.839-8.22l58.003-13.048C419.72,263.536,417.788,279.975,395.556,284.804z" fill="#FFFFFF"/>
		<path d="M235.635,257.188c145.843,0,197.237-36.163,203.741-41.251v-24.525c-32.904,30.575-152.058,39.251-219.688,39.251    c-64.51,0-175.882-7.887-214.616-35.129v30.36C35.812,236.117,114.014,257.188,235.635,257.188z M385.172,222.969    c6.641-0.613,12.283,1.579,12.592,4.905c0.304,3.326-4.833,6.516-11.485,7.113c-6.641,0.612-12.283-1.579-12.588-4.89    C373.382,226.771,378.52,223.582,385.172,222.969z M231.615,239.219c6.692-0.16,12.159,2.393,12.235,5.734    c0.084,3.335-5.258,6.164-11.935,6.332c-6.654,0.172-12.128-2.396-12.221-5.734C219.607,242.208,224.947,239.387,231.615,239.219z     M66.778,225.866c6.654,0.629,11.79,3.803,11.483,7.129s-5.949,5.511-12.583,4.89c-6.642-0.598-11.792-3.787-11.485-7.113    C54.491,227.445,60.134,225.253,66.778,225.866z" fill="#FFFFFF"/>
	</g>
</g>
<g>
</g>
<g>
</g>
<g>
</g>
<g>
</g>
<g>
</g>
<g>
</g>
<g>
</g>
<g>
</g>
<g>
</g>
<g>
</g>
<g>
</g>
<g>
</g>
<g>
</g>
<g>
</g>
<g>
</g>
</svg>
