<?xml version="1.0" encoding="iso-8859-1"?>
<!-- Generator: Adobe Illustrator 16.0.0, SVG Export Plug-In . SVG Version: 6.00 Build 0)  -->
<!DOCTYPE svg PUBLIC "-//W3C//DTD SVG 1.1//EN" "http://www.w3.org/Graphics/SVG/1.1/DTD/svg11.dtd">
<svg xmlns="http://www.w3.org/2000/svg" xmlns:xlink="http://www.w3.org/1999/xlink" version="1.1" id="Capa_1" x="0px" y="0px" viewBox="0 0 297.835 297.835" style="enable-background:new 0 0 297.835 297.835;" xml:space="preserve">
<g>
	<g>
		<path d="M240.465,202.33c-0.663-2.17-2.962-3.407-5.137-2.734l-9.067,2.76L62.964,130.683c-2.084-0.916-4.513,0.031-5.424,2.115    c-0.917,2.079,0.037,4.513,2.115,5.419l164.696,72.284c0.533,0.228,1.087,0.342,1.656,0.342c0.404,0,0.803-0.057,1.196-0.176    l10.522-3.2C239.905,206.809,241.127,204.505,240.465,202.33z" fill="#FFFFFF"/>
		<path d="M181.641,209.89h4.526v9.145h-4.909h-14.571h-5.479v-9.145h6.188l1.485-19.216l-22.861-10.03    c-2.716,3.314-6.793,5.469-11.41,5.469c-0.415,0-0.797-0.089-1.204-0.114c-1.846,30.137,1.007,59.927,27.74,67.326l6.037,44.511    h9.486l6.965-42.891h0.445c25.673-1.724,34.864-19.174,37.267-41.243L182.2,196.52L181.641,209.89z" fill="#FFFFFF"/>
		<path d="M146.815,162.997l23.413,10.283l2.444-31.578l0.072,0.005l7.865-101.781h2.761l-6.287,81.201h-0.072l-4.143,53.573    l7.379,3.231l2.397-56.825c-0.031,0.005-0.052,0.005-0.077,0.005l3.433-81.186h2.75l-4.365,103.213l0.083,0.011l-1.507,35.713    l39.059,17.14c-0.067-3.35-0.208-6.731-0.42-10.118c-0.751,0.119-1.502,0.229-2.294,0.229c-8.182,0-14.819-6.628-14.819-14.82    c0-8.036,6.399-14.54,14.374-14.778c-3.464-27.428-20.63-33.717-30.137-35.079l3.641-81.509h2.355    c0.56,1.502,1.988,2.573,3.688,2.573c2.175,0,3.945-1.766,3.945-3.945c0-2.18-1.771-3.946-3.945-3.946    c-1.699,0-3.128,1.072-3.688,2.571h-2.236l0.326-7.379h2.936c0.56,1.499,1.999,2.576,3.682,2.576c2.186,0,3.946-1.771,3.946-3.951    c0-2.175-1.761-3.946-3.946-3.946c-1.683,0-3.127,1.072-3.682,2.573h-2.807l0.155-3.606c4.319-1.893,7.343-6.193,7.343-11.203    C200.438,5.481,194.959,0,188.196,0c-6.757,0-12.246,5.476-12.246,12.244c0,3.477,1.471,6.599,3.801,8.829l-0.725,5.98h-3.19    c-0.559-1.501-1.988-2.573-3.687-2.573c-2.175,0-3.945,1.771-3.945,3.946c0,2.18,1.771,3.951,3.945,3.951    c1.698,0,3.128-1.077,3.687-2.576h2.864l-0.891,7.379h-2.998c-0.56-1.499-1.994-2.571-3.688-2.571    c-2.185,0-3.945,1.766-3.945,3.946c0,2.18,1.761,3.945,3.945,3.945c1.693,0,3.128-1.071,3.688-2.573h2.672l-9.808,81.333    c-9.124,0.95-27.934,6.444-31.545,35.369C140.581,157.089,144.413,159.518,146.815,162.997z M188.875,37.179h-2.755l0.321-7.379    h2.744L188.875,37.179z M189.408,24.363l-0.108,2.695h-2.75l0.114-2.731c0.508,0.07,1.004,0.153,1.532,0.153    C188.611,24.484,189.004,24.407,189.408,24.363z M181.941,22.714c0.828,0.5,1.719,0.885,2.662,1.178l-0.244,3.172h-2.755    L181.941,22.714z M184.147,29.805l-0.564,7.381h-2.755l0.569-7.381H184.147z" fill="#FFFFFF"/>
		<polygon points="171.523,192.098 170.15,209.89 178.896,209.89 179.497,195.599   " fill="#FFFFFF"/>
	</g>
</g>
<g>
</g>
<g>
</g>
<g>
</g>
<g>
</g>
<g>
</g>
<g>
</g>
<g>
</g>
<g>
</g>
<g>
</g>
<g>
</g>
<g>
</g>
<g>
</g>
<g>
</g>
<g>
</g>
<g>
</g>
</svg>
