<?xml version="1.0" encoding="iso-8859-1"?>
<!-- Generator: Adobe Illustrator 16.0.0, SVG Export Plug-In . SVG Version: 6.00 Build 0)  -->
<!DOCTYPE svg PUBLIC "-//W3C//DTD SVG 1.1//EN" "http://www.w3.org/Graphics/SVG/1.1/DTD/svg11.dtd">
<svg xmlns="http://www.w3.org/2000/svg" xmlns:xlink="http://www.w3.org/1999/xlink" version="1.1" id="Capa_1" x="0px" y="0px" viewBox="0 0 286.443 286.443" style="enable-background:new 0 0 286.443 286.443;" xml:space="preserve">
<g>
	<path d="M286.443,86.346c0-3.493-2.128-4.469-4.769-2.172l-43.476,37.888L99.632,97.608c-0.668-0.207-1.356-0.344-2.084-0.36   L0,80.021v21.088l0.127,0.031v79.859c0,5.24,4.249,9.486,9.492,9.486c5.24,0,9.491-4.246,9.491-9.486v-75.857l17.399,3.668v58.026   c0,5.24,4.246,9.491,9.489,9.491c5.245,0,9.491-4.251,9.491-9.491v-54.011l33.883,7.154v27.288c0,4.365,3.537,7.907,7.907,7.907   c4.368,0,7.905-3.542,7.905-7.907v9.466c0,4.37,3.542,7.907,7.912,7.907c4.368,0,7.904-3.537,7.904-7.907v9.409   c0,4.37,3.542,7.906,7.912,7.906s7.907-3.536,7.907-7.906v6.736c0,4.37,3.542,7.912,7.909,7.912c4.37,0,7.907-3.542,7.907-7.912   v7.726c0,4.37,3.542,7.912,7.907,7.912c4.37,0,7.912-3.542,7.912-7.912v9.745c0,4.36,3.541,7.902,7.912,7.902   c3.691,0,6.772-2.548,7.638-5.976v6.488c0,4.364,3.542,7.906,7.907,7.906c3.147,0,5.846-1.854,7.119-4.521v0.979   c0,4.371,3.542,7.913,7.907,7.913c4.37,0,7.912-3.542,7.912-7.913v-56.658l7.509,1.59v81.192c0,5.235,4.246,9.491,9.496,9.491   c5.24,0,9.486-4.256,9.486-9.491v-81.322l24.912-19.978v77.294c0,5.24,4.251,9.491,9.491,9.491c5.246,0,9.497-4.251,9.497-9.491   v-90.65c0-0.583-0.083-1.163-0.176-1.714l1.356-1.096V86.346H286.443z" fill="#FFFFFF"/>
	<path d="M212.718,74.562c0.228,2.103-0.384,4.164-1.704,5.812c-1.331,1.645-3.226,2.672-5.328,2.895l-23.198,2.473   c-2.319,3.324-6.12,5.354-10.325,5.354c-6.979,0-12.655-5.673-12.655-12.655c0-6.985,5.676-12.658,12.655-12.658   c3.635,0,6.99,1.538,9.352,4.158l18.062-1.926l-88.781-9.947l-7.917,12.753c0.575,1.453,0.87,2.996,0.87,4.58   c0,6.978-5.673,12.658-12.656,12.658c-6.972,0-12.652-5.675-12.652-12.658c0-6.325,4.66-11.586,10.731-12.508l4.21-6.78   L48.47,51.08c-3.469-0.389-8.686,0.8-11.646,2.661L0.005,76.859l237.277,40.602l41.114-35.913c2.625-2.302,1.947-4.481-1.527-4.867   l-67.232-7.542C211.299,70.418,212.479,72.336,212.718,74.562z" fill="#FFFFFF"/>
	<g>
		<path d="M107.915,48.175c-1.486-0.924-3.431-0.46-4.353,1.018L91.855,68.064c-0.256-0.028-0.51-0.081-0.764-0.081    c-4.37,0-7.912,3.542-7.912,7.91c0,4.365,3.542,7.907,7.912,7.907c4.368,0,7.905-3.542,7.905-7.907    c0-1.792-0.614-3.412-1.61-4.738l11.547-18.623C109.849,51.044,109.393,49.097,107.915,48.175z" fill="#FFFFFF"/>
		<path d="M204.516,72.75l-25.296,2.693c-1.289-2.607-3.95-4.422-7.067-4.422c-4.371,0-7.912,3.542-7.912,7.912    c0,4.365,3.541,7.902,7.912,7.902c3.365,0,6.224-2.1,7.363-5.054l25.673-2.742c1.729-0.187,2.993-1.745,2.807-3.482    C207.809,73.827,206.224,72.564,204.516,72.75z" fill="#FFFFFF"/>
	</g>
</g>
<g>
</g>
<g>
</g>
<g>
</g>
<g>
</g>
<g>
</g>
<g>
</g>
<g>
</g>
<g>
</g>
<g>
</g>
<g>
</g>
<g>
</g>
<g>
</g>
<g>
</g>
<g>
</g>
<g>
</g>
</svg>
